<?xml version="1.0" encoding="iso-8859-1"?>
<!-- Generator: Adobe Illustrator 19.0.0, SVG Export Plug-In . SVG Version: 6.00 Build 0)  -->
<svg xmlns="http://www.w3.org/2000/svg" xmlns:xlink="http://www.w3.org/1999/xlink" version="1.1" id="Layer_1" x="0px" y="0px" viewBox="0 0 512 512" style="enable-background:new 0 0 512 512;" xml:space="preserve" width="512" height="512">
<g>
	<path d="M166,130c35.841,0,65-29.159,65-65S201.841,0,166,0s-65,29.159-65,65S130.159,130,166,130z M166,30   c19.299,0,35,15.701,35,35s-15.701,35-35,35s-35-15.701-35-35S146.701,30,166,30z"/>
	<path d="M31,235v90c0,24.813,20.187,45,45,45c5.257,0,10.306-0.906,15-2.57V512h150V160H106C64.646,160,31,193.645,31,235z    M211,482h-30V325h-30v157h-30l0-156.878V229H91v96.071C90.962,333.309,84.248,340,76,340c-8.271,0-15-6.729-15-15v-90   c0-24.813,20.187-45,45-45h45v90h30v-90h30V482z"/>
	<path d="M346,130c35.841,0,65-29.159,65-65S381.841,0,346,0s-65,29.159-65,65S310.159,130,346,130z M346,30   c19.299,0,35,15.701,35,35s-15.701,35-35,35s-35-15.701-35-35S326.701,30,346,30z"/>
	<path d="M406,160H271l0,352h150V367.43c4.693,1.664,9.743,2.57,15,2.57c24.813,0,45-20.187,45-45v-90   C481,193.645,447.354,160,406,160z M451,325c0,8.271-6.729,15-15,15s-15-6.729-15-15v-96h-30v253h-30V325h-30v157h-30l0-292h30v90   h30v-90h45c24.813,0,45,20.187,45,45V325z"/>
</g>















</svg>
