<?xml version="1.0" encoding="iso-8859-1"?>
<!-- Generator: Adobe Illustrator 19.1.0, SVG Export Plug-In . SVG Version: 6.00 Build 0)  -->
<svg version="1.1" id="Capa_1" xmlns="http://www.w3.org/2000/svg" xmlns:xlink="http://www.w3.org/1999/xlink" x="0px" y="0px"
	 viewBox="0 0 401.828 401.828" style="enable-background:new 0 0 401.828 401.828;" xml:space="preserve">
<g>
	<g>
		<path style="fill:#231F20;" d="M216.928,245.999h-31.974c-10.04,0-18.193-8.152-18.193-18.175V195.85
			c0-10.023,8.152-18.175,18.193-18.175h31.974c10.04,0,18.193,8.152,18.193,18.175v31.974
			C235.12,237.847,226.968,245.999,216.928,245.999z M216.822,195.832l-31.868,0.106l0.088,31.868l31.78-0.106V195.832z"/>
		<path style="fill:#231F20;" d="M295.91,245.999h-33.033c-9.74,0-17.663-7.923-17.663-17.663v-33.033
			c0-9.74,7.923-17.663,17.663-17.663h33.033c9.74,0,17.663,7.923,17.663,17.663v33.033
			C313.573,238.094,305.65,245.999,295.91,245.999z M295.292,195.321l-32.398,0.635l0.635,32.398l31.762-0.618V195.321z"/>
		<path style="fill:#231F20;" d="M139.428,322.07h-33.915c-9.493,0-17.222-7.729-17.222-17.222v-33.933
			c0-9.493,7.729-17.222,17.222-17.222h33.933c9.493,0,17.222,7.729,17.222,17.222v33.933
			C156.65,314.341,148.921,322.07,139.428,322.07z M138.351,270.932l-32.856,1.076l1.076,32.856l31.78-1.041V270.932z"/>
		<path style="fill:#231F20;" d="M217.439,322.07h-32.997c-9.758,0-17.681-7.923-17.681-17.681v-32.997
			c0-9.758,7.923-17.681,17.681-17.681h32.997c9.758,0,17.681,7.923,17.681,17.681v32.997
			C235.12,314.129,227.18,322.07,217.439,322.07z M216.822,271.391l-32.38,0.6l0.6,32.38l31.78-0.6V271.391z"/>
		<path style="fill:#231F20;" d="M295.539,322.07h-32.256c-9.952,0-18.052-8.099-18.052-18.052v-32.256
			c0-9.952,8.099-18.052,18.052-18.052h32.256c9.935,0,18.034,8.099,18.034,18.052v32.256
			C313.573,313.97,305.474,322.07,295.539,322.07z M295.292,271.762l-32.009,0.247l0.247,32.009l31.762-0.247V271.762z"/>
		<path style="fill:#231F20;" d="M124.658,92.164c-14.611,0-26.504-11.893-26.504-26.504V26.504C98.154,11.893,110.048,0,124.658,0
			c14.628,0,26.522,11.893,26.522,26.504V65.66C151.162,80.27,139.269,92.164,124.658,92.164z M124.658,18.281
			c-4.535,0-8.223,3.688-8.223,8.223V65.66c0,4.535,3.688,8.223,8.223,8.223c4.535,0,8.223-3.688,8.223-8.223V26.504
			C132.881,21.987,129.193,18.281,124.658,18.281z"/>
		<path style="fill:#231F20;" d="M336.619,401.828H65.227c-26.274,0-47.661-21.369-47.661-47.661V84.594
			c0-26.274,21.387-47.661,47.661-47.661h19.746c5.047,0,9.14,4.094,9.14,9.14v30.58c0,13.852,11.258,25.11,25.11,25.11h9.088
			c13.852,0,25.11-11.258,25.11-25.11v-30.58c0-5.047,4.094-9.14,9.14-9.14h70.671c5.047,0,9.14,4.094,9.14,9.14v30.58
			c0,13.852,11.258,25.11,25.11,25.11h9.105c13.834,0,25.092-11.258,25.092-25.11v-30.58c0-5.047,4.094-9.14,9.14-9.14h25.798
			c26.274,0,47.643,21.387,47.643,47.661v269.574C384.28,380.442,362.911,401.828,336.619,401.828z M65.227,55.231
			c-16.199,0-29.38,13.181-29.38,29.38v269.574c0,16.199,13.181,29.362,29.38,29.362h271.409c16.199,0,29.362-13.164,29.362-29.362
			V84.594c0-16.199-13.164-29.38-29.362-29.38h-16.64v21.44c0,23.928-19.463,43.408-43.391,43.408H267.5
			c-23.928,0-43.391-19.463-43.391-43.408V55.231h-52.39v21.44c0,23.928-19.463,43.408-43.408,43.408h-9.07
			c-23.928,0-43.408-19.463-43.408-43.408v-21.44H65.227z"/>
		<path style="fill:#231F20;" d="M306.092,350.903H95.79c-18.246,0-33.086-14.84-33.086-33.086V181.892
			c0-18.246,14.84-33.086,33.086-33.086h210.302c18.246,0,33.086,14.84,33.086,33.086v135.925
			C339.16,336.063,324.32,350.903,306.092,350.903z M95.79,167.105c-8.152,0-14.787,6.635-14.787,14.787v135.925
			c0,8.152,6.635,14.805,14.787,14.805h210.302c8.152,0,14.787-6.652,14.787-14.805V181.892c0-8.152-6.635-14.787-14.787-14.787
			C306.092,167.105,95.79,167.105,95.79,167.105z"/>
		<path style="fill:#231F20;" d="M271.735,92.164c-14.611,0-26.504-11.893-26.504-26.504V26.504C245.231,11.893,257.125,0,271.735,0
			c14.628,0,26.522,11.893,26.522,26.504V65.66C298.257,80.27,286.346,92.164,271.735,92.164z M271.735,18.281
			c-4.517,0-8.223,3.688-8.223,8.223V65.66c0,4.535,3.688,8.223,8.223,8.223s8.223-3.688,8.223-8.223V26.504
			C279.958,21.987,276.27,18.281,271.735,18.281z"/>
	</g>
	<g>
	</g>
	<g>
	</g>
	<g>
	</g>
	<g>
	</g>
	<g>
	</g>
	<g>
	</g>
	<g>
	</g>
	<g>
	</g>
	<g>
	</g>
	<g>
	</g>
	<g>
	</g>
	<g>
	</g>
	<g>
	</g>
	<g>
	</g>
	<g>
	</g>
</g>
<g>
</g>
<g>
</g>
<g>
</g>
<g>
</g>
<g>
</g>
<g>
</g>
<g>
</g>
<g>
</g>
<g>
</g>
<g>
</g>
<g>
</g>
<g>
</g>
<g>
</g>
<g>
</g>
<g>
</g>
</svg>
