<?xml version="1.0" encoding="iso-8859-1"?>
<!-- Generator: Adobe Illustrator 19.0.0, SVG Export Plug-In . SVG Version: 6.00 Build 0)  -->
<svg version="1.1" id="Capa_1" xmlns="http://www.w3.org/2000/svg" xmlns:xlink="http://www.w3.org/1999/xlink" x="0px" y="0px"
	 viewBox="0 0 397.55 397.55" style="enable-background:new 0 0 397.55 397.55;" xml:space="preserve">
<g>
	<g>
		<polygon points="350.825,117.05 350.825,166.65 382.325,143.25 		"/>
	</g>
</g>
<g>
	<g>
		<path d="M217.925,6.95c-11.1-9.2-27.2-9.3-38.3-0.1l-12.7,10.8h63.9L217.925,6.95z"/>
	</g>
</g>
<g>
	<g>
		<path d="M228.625,282.45c-8.6,6.4-19,9.9-29.7,9.8c-10.7,0-21.2-3.4-29.8-9.8l-159.3-118.9v203.9c-0.1,16.5,13.2,30,29.7,30.1
			h318.5c16.5-0.1,29.8-13.6,29.7-30.1v-203.9L228.625,282.45z"/>
	</g>
</g>
<g>
	<g>
		<polygon points="15.325,143.25 45.825,165.95 45.825,117.95 		"/>
	</g>
</g>
<g>
	<g>
		<path d="M65.825,37.65v143.2l115,85.6c10.7,7.8,25.4,7.8,36.1,0l113.9-84.9V37.65H65.825z M136.825,117.65h54c5.5,0,10,4.5,10,10
			c0,5.5-4.5,10-10,10h-54c-5.5,0-10-4.5-10-10C126.825,122.15,131.325,117.65,136.825,117.65z M260.825,187.65h-124
			c-5.5,0-10-4.5-10-10s4.5-10,10-10h124c5.5,0,10,4.5,10,10S266.325,187.65,260.825,187.65z"/>
	</g>
</g>
<g>
</g>
<g>
</g>
<g>
</g>
<g>
</g>
<g>
</g>
<g>
</g>
<g>
</g>
<g>
</g>
<g>
</g>
<g>
</g>
<g>
</g>
<g>
</g>
<g>
</g>
<g>
</g>
<g>
</g>
</svg>
