<?xml version="1.0" encoding="iso-8859-1"?>
<!-- Generator: Adobe Illustrator 18.0.0, SVG Export Plug-In . SVG Version: 6.00 Build 0)  -->
<!DOCTYPE svg PUBLIC "-//W3C//DTD SVG 1.1//EN" "http://www.w3.org/Graphics/SVG/1.1/DTD/svg11.dtd">
<svg version="1.1" id="Capa_1" xmlns="http://www.w3.org/2000/svg" xmlns:xlink="http://www.w3.org/1999/xlink" x="0px" y="0px"
	 viewBox="0 0 262.924 262.924" style="enable-background:new 0 0 262.924 262.924;" xml:space="preserve">
<g>
	<path d="M186.118,124.982c-5.911,0.013-11.077,3.148-13.977,7.833v-4.917c0-9.091-7.433-16.95-16.524-16.93
		c-5.911,0.013-11.077,3.148-13.977,7.832v-3.278c0-9.241-7.562-17.089-16.802-16.917c-8.96,0.168-16.173,7.484-16.173,16.484v4.817
		c-2.906-4.695-8.087-7.832-14.014-7.832c-7.969,0-14.617,5.654-16.153,13.169c0,6.722,0,50.382,0,57.512
		c0,4.56-4.001,8.202-8.676,7.602c-3.864-0.496-6.657-3.973-6.657-7.869v-15.146c0-2.607-3.22-3.835-4.956-1.89l-15.015,16.821
		c-5.868,6.574-5.529,16.602,0.77,22.764l43.11,42.18c7.566,9.557,19.258,15.707,32.366,15.707h39.536
		c24.116,0,43.666-19.55,43.666-43.666v-77.346C202.642,132.821,195.209,124.963,186.118,124.982z"/>
	<path d="M135.177,80.935c4.143,0,7.5-3.357,7.5-7.5V7.5c0-4.143-3.357-7.5-7.5-7.5c-4.143,0-7.5,3.357-7.5,7.5v65.935
		C127.677,77.577,131.035,80.935,135.177,80.935z"/>
	<path d="M98.535,76.858c1.892,3.687,6.413,5.14,10.097,3.249c3.686-1.892,5.14-6.412,3.249-10.097L88.821,25.076
		c-1.892-3.686-6.412-5.142-10.097-3.249c-3.686,1.892-5.14,6.412-3.249,10.097L98.535,76.858z"/>
	<path d="M49.746,73.136l24.713,20.209c3.204,2.62,7.93,2.151,10.554-1.058c2.622-3.207,2.148-7.932-1.058-10.554L59.243,61.524
		c-3.205-2.62-7.931-2.147-10.554,1.058C46.067,65.789,46.54,70.514,49.746,73.136z"/>
	<path d="M222.223,62.582c-2.621-3.207-7.347-3.68-10.554-1.058l-24.713,20.209c-3.206,2.622-3.68,7.347-1.058,10.554
		c2.622,3.208,7.349,3.678,10.554,1.058l24.713-20.209C224.371,70.514,224.845,65.789,222.223,62.582z"/>
	<path d="M161.724,80.107c3.684,1.892,8.205,0.437,10.097-3.249l23.06-44.935c1.891-3.684,0.437-8.205-3.249-10.097
		c-3.683-1.892-8.205-0.438-10.097,3.249l-23.06,44.935C156.584,73.695,158.038,78.216,161.724,80.107z"/>
</g>
<g>
</g>
<g>
</g>
<g>
</g>
<g>
</g>
<g>
</g>
<g>
</g>
<g>
</g>
<g>
</g>
<g>
</g>
<g>
</g>
<g>
</g>
<g>
</g>
<g>
</g>
<g>
</g>
<g>
</g>
</svg>
