<?xml version="1.0" encoding="UTF-8" standalone="no"?>
<!-- Generator: Adobe Illustrator 19.0.0, SVG Export Plug-In . SVG Version: 6.00 Build 0)  -->

<svg
   xmlns:dc="http://purl.org/dc/elements/1.1/"
   xmlns:cc="http://creativecommons.org/ns#"
   xmlns:rdf="http://www.w3.org/1999/02/22-rdf-syntax-ns#"
   xmlns:svg="http://www.w3.org/2000/svg"
   xmlns="http://www.w3.org/2000/svg"
   xmlns:sodipodi="http://sodipodi.sourceforge.net/DTD/sodipodi-0.dtd"
   xmlns:inkscape="http://www.inkscape.org/namespaces/inkscape"
   version="1.1"
   id="Capa_1"
   x="0px"
   y="0px"
   viewBox="0 0 512 512"
   style="enable-background:new 0 0 512 512;"
   xml:space="preserve"
   sodipodi:docname="login.svg"
   inkscape:version="0.92.4 (5da689c313, 2019-01-14)"><metadata
   id="metadata47"><rdf:RDF><cc:Work
       rdf:about=""><dc:format>image/svg+xml</dc:format><dc:type
         rdf:resource="http://purl.org/dc/dcmitype/StillImage" /></cc:Work></rdf:RDF></metadata><defs
   id="defs45" /><sodipodi:namedview
   pagecolor="#ffffff"
   bordercolor="#666666"
   borderopacity="1"
   objecttolerance="10"
   gridtolerance="10"
   guidetolerance="10"
   inkscape:pageopacity="0"
   inkscape:pageshadow="2"
   inkscape:window-width="2880"
   inkscape:window-height="1586"
   id="namedview43"
   showgrid="false"
   inkscape:zoom="0.4609375"
   inkscape:cx="256"
   inkscape:cy="256"
   inkscape:window-x="-11"
   inkscape:window-y="-11"
   inkscape:window-maximized="1"
   inkscape:current-layer="g6" />
<g
   id="g10">
	<g
   id="g8">
		<g
   id="g6">
			<path
   d="m 300.2955,226.513 c 1.088,-2.603 2.645,-4.971 4.629,-6.955 l 63.979,-63.979 c 8.341,-8.32 21.824,-8.32 30.165,0 8.341,8.341 8.341,21.845 0,30.165 l -27.584,27.584 h 119.169 c 11.797,0 21.333,9.557 21.333,21.333 0,11.776 -9.536,21.333 -21.333,21.333 h -119.168 l 27.584,27.584 c 8.341,8.341 8.341,21.845 0,30.165 -4.16,4.181 -9.621,6.251 -15.083,6.251 -5.462,0 -10.923,-2.069 -15.083,-6.251 l -63.979,-63.979 c -1.984,-1.963 -3.541,-4.331 -4.629,-6.955 -2.154,-5.203 -2.154,-11.091 0,-16.296 z"
   id="path2"
   inkscape:connector-curvature="0"
   style="fill:#ffffff;fill-opacity:1" />
			<path
   d="M362.68,298.667c-11.797,0-21.333,9.557-21.333,21.333v106.667h-85.333V85.333c0-9.408-6.187-17.728-15.211-20.437     l-74.091-22.229h174.635v106.667c0,11.776,9.536,21.333,21.333,21.333s21.333-9.557,21.333-21.333v-128     C384.013,9.557,374.477,0,362.68,0H21.347c-0.768,0-1.451,0.32-2.197,0.405c-1.003,0.107-1.92,0.277-2.88,0.512     c-2.24,0.576-4.267,1.451-6.165,2.645c-0.469,0.299-1.045,0.32-1.493,0.661C8.44,4.352,8.376,4.587,8.205,4.715     C5.88,6.549,3.939,8.789,2.531,11.456c-0.299,0.576-0.363,1.195-0.597,1.792c-0.683,1.621-1.429,3.2-1.685,4.992     c-0.107,0.64,0.085,1.237,0.064,1.856c-0.021,0.427-0.299,0.811-0.299,1.237V448c0,10.176,7.189,18.923,17.152,20.907     l213.333,42.667c1.387,0.299,2.795,0.427,4.181,0.427c4.885,0,9.685-1.685,13.525-4.843c4.928-4.053,7.808-10.091,7.808-16.491     v-21.333H362.68c11.797,0,21.333-9.557,21.333-21.333V320C384.013,308.224,374.477,298.667,362.68,298.667z"
   id="path4"
   style="fill:#fefefe;fill-opacity:1" />
		</g>
	</g>
</g>
<g
   id="g12">
</g>
<g
   id="g14">
</g>
<g
   id="g16">
</g>
<g
   id="g18">
</g>
<g
   id="g20">
</g>
<g
   id="g22">
</g>
<g
   id="g24">
</g>
<g
   id="g26">
</g>
<g
   id="g28">
</g>
<g
   id="g30">
</g>
<g
   id="g32">
</g>
<g
   id="g34">
</g>
<g
   id="g36">
</g>
<g
   id="g38">
</g>
<g
   id="g40">
</g>
</svg>