<?xml version="1.0" encoding="iso-8859-1"?>
<!-- Generator: Adobe Illustrator 19.0.0, SVG Export Plug-In . SVG Version: 6.00 Build 0)  -->
<svg version="1.1" id="Capa_1" xmlns="http://www.w3.org/2000/svg" xmlns:xlink="http://www.w3.org/1999/xlink" x="0px" y="0px"
	 viewBox="0 0 512 512" style="enable-background:new 0 0 512 512;" xml:space="preserve">
<g>
	<g>
		<path d="M496,32H16C7.168,32,0,39.136,0,48v32c0,8.832,7.168,16,16,16h16v256c0,17.664,14.368,32,32,32h176v39.424l-40.864,27.264
			c-7.36,4.896-9.344,14.848-4.448,22.176c4.864,7.328,14.752,9.312,22.176,4.448L256,451.232l39.136,26.08
			c2.72,1.824,5.792,2.688,8.864,2.688c5.152,0,10.208-2.496,13.312-7.136c4.896-7.328,2.912-17.28-4.448-22.176L272,423.424V384
			h176c17.664,0,32-14.336,32-32V96h16c8.832,0,16-7.168,16-16V48C512,39.136,504.832,32,496,32z M410.4,156.128l-112,96
			c-4.288,3.68-10.112,4.832-15.456,3.04L195.2,225.952l-73.216,58.56C119.04,286.848,115.52,288,112,288
			c-4.672,0-9.344-2.048-12.512-5.984c-5.504-6.912-4.384-16.96,2.496-22.496l80-64c4.256-3.36,9.92-4.416,15.072-2.656
			l87.392,29.12l105.12-90.08c6.656-5.728,16.768-4.992,22.56,1.728C417.92,140.288,417.12,150.4,410.4,156.128z"/>
	</g>
</g>
<g>
</g>
<g>
</g>
<g>
</g>
<g>
</g>
<g>
</g>
<g>
</g>
<g>
</g>
<g>
</g>
<g>
</g>
<g>
</g>
<g>
</g>
<g>
</g>
<g>
</g>
<g>
</g>
<g>
</g>
</svg>
