<svg height="496pt" viewBox="0 0 496 496" width="496pt" xmlns="http://www.w3.org/2000/svg"><path d="m360 0h-320c-4.414062 0-8 3.585938-8 8v24h-24c-4.414062 0-8 3.585938-8 8v448c0 4.425781 3.585938 8 8 8h320c4.414062 0 8-3.574219 8-8v-24h24c4.414062 0 8-3.574219 8-8v-448c0-4.414062-3.585938-8-8-8zm-40 480h-304v-432h240v56c0 4.414062 3.585938 8 8 8h56zm-11.3125-384h-36.6875v-36.6875zm43.3125 352h-16v-344c0-2.207031-.894531-4.207031-2.34375-5.65625l-63.992188-63.992188c-1.457031-1.457031-3.457031-2.351562-5.664062-2.351562h-216v-16h304zm0 0"/><path d="m88 208h-48c-4.414062 0-8 3.585938-8 8v48c0 4.425781 3.585938 8 8 8h48c4.414062 0 8-3.574219 8-8v-48c0-4.414062-3.585938-8-8-8zm-8 48h-32v-32h32zm0 0"/><path d="m88 128h-48c-4.414062 0-8 3.585938-8 8v48c0 4.414062 3.585938 8 8 8h48c4.414062 0 8-3.585938 8-8v-48c0-4.414062-3.585938-8-8-8zm-8 48h-32v-32h32zm0 0"/><path d="m112 256h192v16h-192zm0 0"/><path d="m112 224h128v16h-128zm0 0"/><path d="m112 176h192v16h-192zm0 0"/><path d="m112 144h128v16h-128zm0 0"/><path d="m88 368h-48c-4.414062 0-8 3.574219-8 8v48c0 4.425781 3.585938 8 8 8h48c4.414062 0 8-3.574219 8-8v-48c0-4.425781-3.585938-8-8-8zm-8 48h-32v-32h32zm0 0"/><path d="m88 288h-48c-4.414062 0-8 3.574219-8 8v48c0 4.425781 3.585938 8 8 8h48c4.414062 0 8-3.574219 8-8v-48c0-4.425781-3.585938-8-8-8zm-8 48h-32v-32h32zm0 0"/><path d="m112 416h192v16h-192zm0 0"/><path d="m112 384h128v16h-128zm0 0"/><path d="m112 336h192v16h-192zm0 0"/><path d="m112 304h128v16h-128zm0 0"/><path d="m40 112h192c4.414062 0 8-3.585938 8-8v-32c0-4.414062-3.585938-8-8-8h-192c-4.414062 0-8 3.585938-8 8v32c0 4.414062 3.585938 8 8 8zm8-32h176v16h-176zm0 0"/><path d="m488 112h-24v-24c0-22.054688-17.945312-40-40-40s-40 17.945312-40 40v320c0 1.015625.191406 2.023438.566406 2.96875l32 80c1.226563 3.039062 4.160156 5.03125 7.433594 5.03125s6.207031-1.992188 7.433594-5.03125l32-80c.375-.945312.566406-1.953125.566406-2.96875v-280h16v120h16v-128c0-4.414062-3.585938-8-8-8zm-84.183594 304h40.367188l-6.398438 16h-27.570312zm-3.816406-16v-256h48v256zm0-272v-16h48v16zm24-64c13.230469 0 24 10.769531 24 24v8h-48v-8c0-13.230469 10.769531-24 24-24zm0 402.464844-7.382812-18.464844h14.765624zm0 0"/></svg>