<svg height="512pt" viewBox="-91 0 512 512" width="512pt" xmlns="http://www.w3.org/2000/svg"><path d="m275 61.042969h-65v-45.992188c0-8.28125-6.707031-14.9960935-14.988281-14.9999998 0 0-59.011719-.0507812-59.011719-.0507812-8.289062 0-15 6.730469-15 15v46.042969h-66c-30.328125 0-55 24.671875-55 54.996093v340.964844c0 30.324219 24.671875 54.996094 55 54.996094h220c30.328125 0 55-24.671875 55-54.996094v-340.964844c0-30.324218-24.671875-54.996093-55-54.996093zm-124-31.03125 29 .023437v61.003906h-29zm149 426.992187c0 13.78125-11.214844 24.996094-25 24.996094h-220c-13.785156 0-25-11.214844-25-24.996094v-340.964844c0-13.78125 11.214844-24.996093 25-24.996093h66v14.996093c0 8.285157 6.714844 15 15 15h59c8.285156 0 15-6.714843 15-15v-14.996093h65c13.785156 0 25 11.210937 25 24.996093zm0 0"/><path d="m255 361.011719h-180c-8.285156 0-15 6.714843-15 15 0 8.285156 6.714844 15 15 15h180c8.285156 0 15-6.714844 15-15 0-8.285157-6.714844-15-15-15zm0 0"/><path d="m135 421.007812h-60c-8.285156 0-15 6.714844-15 15 0 8.28125 6.714844 15 15 15h60c8.285156 0 15-6.71875 15-15 0-8.285156-6.714844-15-15-15zm0 0"/><path d="m255 421.007812h-60c-8.285156 0-15 6.714844-15 15 0 8.28125 6.714844 15 15 15h60c8.285156 0 15-6.71875 15-15 0-8.285156-6.714844-15-15-15zm0 0"/><path d="m105 331.019531h120c8.285156 0 15-6.71875 15-15v-30c0-27.613281-14.878906-51.898437-37.59375-65.007812 19.90625-29.703125-1.457031-69.980469-37.40625-69.980469-35.96875 0-57.394531 40.355469-37.328125 70.097656-23.542969 13.796875-37.671875 39.265625-37.671875 65.886719v29.003906c0 8.28125 6.714844 15 15 15zm60-149.988281c8.269531 0 15 6.730469 15 15s-6.730469 14.996094-15 14.996094-15-6.726563-15-14.996094 6.730469-15 15-15zm-45 105.984375c0-25.476563 20.597656-46.476563 45.921875-45.980469 24.304687.488282 44.078125 20.667969 44.078125 44.984375v15h-90zm0 0"/></svg>