<?xml version="1.0" encoding="UTF-8" standalone="no"?>
<svg
   xmlns:dc="http://purl.org/dc/elements/1.1/"
   xmlns:cc="http://creativecommons.org/ns#"
   xmlns:rdf="http://www.w3.org/1999/02/22-rdf-syntax-ns#"
   xmlns:svg="http://www.w3.org/2000/svg"
   xmlns="http://www.w3.org/2000/svg"
   xmlns:sodipodi="http://sodipodi.sourceforge.net/DTD/sodipodi-0.dtd"
   xmlns:inkscape="http://www.inkscape.org/namespaces/inkscape"
   version="1.1"
   id="Capa_1"
   x="0px"
   y="0px"
   viewBox="0 0 89.428 89.428"
   style="enable-background:new 0 0 89.428 89.428;"
   xml:space="preserve"
   width="512px"
   height="512px"
   sodipodi:docname="wifi.svg"
   inkscape:version="0.92.4 (5da689c313, 2019-01-14)"><metadata
   id="metadata4624"><rdf:RDF><cc:Work
       rdf:about=""><dc:format>image/svg+xml</dc:format><dc:type
         rdf:resource="http://purl.org/dc/dcmitype/StillImage" /></cc:Work></rdf:RDF></metadata><defs
   id="defs4622" /><sodipodi:namedview
   pagecolor="#ffffff"
   bordercolor="#666666"
   borderopacity="1"
   objecttolerance="10"
   gridtolerance="10"
   guidetolerance="10"
   inkscape:pageopacity="0"
   inkscape:pageshadow="2"
   inkscape:window-width="2880"
   inkscape:window-height="1586"
   id="namedview4620"
   showgrid="false"
   inkscape:zoom="1.8823956"
   inkscape:cx="200.02223"
   inkscape:cy="283.47382"
   inkscape:window-x="-11"
   inkscape:window-y="-11"
   inkscape:window-maximized="1"
   inkscape:current-layer="g4615" /><g
   id="g4617"><g
     id="g4615">
	<path
   d="M 44.714,0 C 21.759,0 3.081,18.678 3.081,41.633 c 0,11.119 4.33,21.57 12.197,29.436 1.399,1.399 3.658,1.399 5.06,0 1.399,-1.403 1.399,-3.661 0,-5.06 -6.514,-6.514 -10.1,-15.167 -10.1,-24.376 0,-19.011 15.461,-34.475 34.475,-34.475 19.014,0 34.475,15.461 34.475,34.475 0,9.205 -3.586,17.866 -10.092,24.379 -1.399,1.399 -1.399,3.661 0,5.06 0.698,0.698 1.614,1.049 2.53,1.049 0.916,0 1.836,-0.351 2.53,-1.049 7.859,-7.863 12.19,-18.32 12.19,-29.443 C 86.347,18.678 67.669,0 44.714,0 Z m 0,17.189 c -13.485,0 -24.444,10.958 -24.444,24.444 0,6.528 2.545,12.673 7.161,17.286 1.403,1.399 3.658,1.399 5.06,0 1.403,-1.399 1.403,-3.668 0,-5.06 -3.264,-3.264 -5.064,-7.605 -5.064,-12.225 0,-9.534 7.755,-17.286 17.286,-17.286 9.531,0 17.287,7.751 17.287,17.285 0,4.62 -1.8,8.958 -5.064,12.225 -1.403,1.392 -1.403,3.661 0,5.06 0.694,0.698 1.614,1.049 2.53,1.049 0.916,0 1.832,-0.351 2.53,-1.049 C 66.613,54.305 69.157,48.16 69.157,41.632 69.158,28.148 58.199,17.189 44.714,17.189 Z"
   data-original="#010002"
   class="active-path"
   data-old_color="#010002"
   id="path4613"
   inkscape:connector-curvature="0"
   style="fill:#4fae6f"
   sodipodi:nodetypes="ssccsssscssccssscccsssccsccs" />
<ellipse
   style="fill:#4fae6f;fill-opacity:1;stroke:none;stroke-width:0.5710277;stroke-miterlimit:4;stroke-dasharray:none;stroke-opacity:1"
   id="path4626"
   cx="44.418751"
   cy="41.515453"
   rx="8.3654222"
   ry="8.4146299" /></g></g> </svg>